<mxfile host="app.diagrams.net" agent="Mozilla/5.0 (Macintosh; Intel Mac OS X 10_15_7) AppleWebKit/537.36 (KHTML, like Gecko) Chrome/133.0.0.0 Safari/537.36" version="26.0.15">
  <diagram name="Page-1" id="W99nv6RKTesl7LtdTZ3Z">
    <mxGraphModel dx="487" dy="533" grid="1" gridSize="10" guides="1" tooltips="1" connect="1" arrows="1" fold="1" page="1" pageScale="1" pageWidth="850" pageHeight="1100" math="0" shadow="0">
      <root>
        <mxCell id="0" />
        <mxCell id="1" parent="0" />
        <mxCell id="sLChm1T4Akftlm2NWWwi-1" value="" style="rounded=0;whiteSpace=wrap;html=1;" parent="1" vertex="1">
          <mxGeometry x="340" y="140" width="120" height="60" as="geometry" />
        </mxCell>
        <mxCell id="sLChm1T4Akftlm2NWWwi-2" value="" style="rounded=0;whiteSpace=wrap;html=1;" parent="1" vertex="1">
          <mxGeometry x="90" y="280" width="120" height="60" as="geometry" />
        </mxCell>
        <mxCell id="sLChm1T4Akftlm2NWWwi-3" value="" style="endArrow=classic;html=1;rounded=0;entryX=0.5;entryY=0;entryDx=0;entryDy=0;fontStyle=1" parent="1" target="sLChm1T4Akftlm2NWWwi-2" edge="1">
          <mxGeometry width="50" height="50" relative="1" as="geometry">
            <mxPoint x="400" y="200" as="sourcePoint" />
            <mxPoint x="400" y="240" as="targetPoint" />
          </mxGeometry>
        </mxCell>
        <mxCell id="sLChm1T4Akftlm2NWWwi-4" value="Main" style="text;html=1;align=center;verticalAlign=middle;whiteSpace=wrap;rounded=0;" parent="1" vertex="1">
          <mxGeometry x="355" y="152.5" width="90" height="35" as="geometry" />
        </mxCell>
        <mxCell id="sLChm1T4Akftlm2NWWwi-5" value="collect_scores" style="text;html=1;align=center;verticalAlign=middle;whiteSpace=wrap;rounded=0;" parent="1" vertex="1">
          <mxGeometry x="105" y="285" width="90" height="50" as="geometry" />
        </mxCell>
        <mxCell id="sLChm1T4Akftlm2NWWwi-6" value="" style="rounded=0;whiteSpace=wrap;html=1;" parent="1" vertex="1">
          <mxGeometry x="280" y="280" width="120" height="60" as="geometry" />
        </mxCell>
        <mxCell id="sLChm1T4Akftlm2NWWwi-7" value="calculate_average" style="text;html=1;align=center;verticalAlign=middle;whiteSpace=wrap;rounded=0;" parent="1" vertex="1">
          <mxGeometry x="285" y="290" width="110" height="40" as="geometry" />
        </mxCell>
        <mxCell id="sLChm1T4Akftlm2NWWwi-8" value="" style="endArrow=classic;html=1;rounded=0;entryX=0.5;entryY=0;entryDx=0;entryDy=0;exitX=0.5;exitY=1;exitDx=0;exitDy=0;" parent="1" source="sLChm1T4Akftlm2NWWwi-1" target="sLChm1T4Akftlm2NWWwi-6" edge="1">
          <mxGeometry width="50" height="50" relative="1" as="geometry">
            <mxPoint x="380" y="210" as="sourcePoint" />
            <mxPoint x="250" y="280" as="targetPoint" />
          </mxGeometry>
        </mxCell>
        <mxCell id="sLChm1T4Akftlm2NWWwi-10" value="" style="rounded=0;whiteSpace=wrap;html=1;" parent="1" vertex="1">
          <mxGeometry x="480" y="275" width="120" height="60" as="geometry" />
        </mxCell>
        <mxCell id="sLChm1T4Akftlm2NWWwi-11" value="" style="rounded=0;whiteSpace=wrap;html=1;" parent="1" vertex="1">
          <mxGeometry x="630" y="275" width="120" height="60" as="geometry" />
        </mxCell>
        <mxCell id="sLChm1T4Akftlm2NWWwi-12" value="determine_grade" style="text;html=1;align=center;verticalAlign=middle;whiteSpace=wrap;rounded=0;" parent="1" vertex="1">
          <mxGeometry x="485" y="280" width="110" height="50" as="geometry" />
        </mxCell>
        <mxCell id="sLChm1T4Akftlm2NWWwi-13" value="display_results" style="text;html=1;align=center;verticalAlign=middle;whiteSpace=wrap;rounded=0;" parent="1" vertex="1">
          <mxGeometry x="635" y="280" width="110" height="50" as="geometry" />
        </mxCell>
        <mxCell id="sLChm1T4Akftlm2NWWwi-17" value="" style="endArrow=classic;html=1;rounded=0;entryX=0.5;entryY=0;entryDx=0;entryDy=0;exitX=0.5;exitY=1;exitDx=0;exitDy=0;" parent="1" source="sLChm1T4Akftlm2NWWwi-1" target="sLChm1T4Akftlm2NWWwi-10" edge="1">
          <mxGeometry width="50" height="50" relative="1" as="geometry">
            <mxPoint x="410" y="210" as="sourcePoint" />
            <mxPoint x="425" y="280" as="targetPoint" />
          </mxGeometry>
        </mxCell>
        <mxCell id="sLChm1T4Akftlm2NWWwi-18" value="" style="endArrow=classic;html=1;rounded=0;exitX=0.5;exitY=1;exitDx=0;exitDy=0;entryX=0.5;entryY=0;entryDx=0;entryDy=0;" parent="1" source="sLChm1T4Akftlm2NWWwi-1" target="sLChm1T4Akftlm2NWWwi-11" edge="1">
          <mxGeometry width="50" height="50" relative="1" as="geometry">
            <mxPoint x="410" y="210" as="sourcePoint" />
            <mxPoint x="730" y="260" as="targetPoint" />
          </mxGeometry>
        </mxCell>
        <mxCell id="sLChm1T4Akftlm2NWWwi-19" value="We need structure charts from top to bottom left" style="text;html=1;align=center;verticalAlign=middle;whiteSpace=wrap;rounded=0;" parent="1" vertex="1">
          <mxGeometry x="350" y="80" width="140" height="40" as="geometry" />
        </mxCell>
        <mxCell id="sLChm1T4Akftlm2NWWwi-21" value="These are subroutines" style="text;html=1;align=center;verticalAlign=middle;whiteSpace=wrap;rounded=0;" parent="1" vertex="1">
          <mxGeometry x="30" y="170" width="120" height="50" as="geometry" />
        </mxCell>
        <mxCell id="sLChm1T4Akftlm2NWWwi-22" value="" style="endArrow=classic;html=1;rounded=0;exitX=0.5;exitY=1;exitDx=0;exitDy=0;" parent="1" source="sLChm1T4Akftlm2NWWwi-21" edge="1">
          <mxGeometry width="50" height="50" relative="1" as="geometry">
            <mxPoint x="110" y="270" as="sourcePoint" />
            <mxPoint x="150" y="270" as="targetPoint" />
          </mxGeometry>
        </mxCell>
        <mxCell id="sLChm1T4Akftlm2NWWwi-23" value="Main line that contains all the subs" style="text;html=1;align=center;verticalAlign=middle;whiteSpace=wrap;rounded=0;" parent="1" vertex="1">
          <mxGeometry x="170" y="50" width="115" height="60" as="geometry" />
        </mxCell>
        <mxCell id="sLChm1T4Akftlm2NWWwi-24" value="" style="endArrow=classic;html=1;rounded=0;exitX=1;exitY=1;exitDx=0;exitDy=0;entryX=0;entryY=0.5;entryDx=0;entryDy=0;" parent="1" source="sLChm1T4Akftlm2NWWwi-23" target="sLChm1T4Akftlm2NWWwi-1" edge="1">
          <mxGeometry width="50" height="50" relative="1" as="geometry">
            <mxPoint x="270" y="210" as="sourcePoint" />
            <mxPoint x="320" y="160" as="targetPoint" />
          </mxGeometry>
        </mxCell>
        <mxCell id="sLChm1T4Akftlm2NWWwi-25" value="" style="endArrow=classic;html=1;rounded=0;startArrow=oval;startFill=0;" parent="1" edge="1">
          <mxGeometry width="50" height="50" relative="1" as="geometry">
            <mxPoint x="290" y="187.5" as="sourcePoint" />
            <mxPoint x="200" y="220" as="targetPoint" />
          </mxGeometry>
        </mxCell>
        <mxCell id="sLChm1T4Akftlm2NWWwi-26" value="scores" style="edgeLabel;html=1;align=center;verticalAlign=middle;resizable=0;points=[];" parent="sLChm1T4Akftlm2NWWwi-25" vertex="1" connectable="0">
          <mxGeometry x="0.325" y="2" relative="1" as="geometry">
            <mxPoint as="offset" />
          </mxGeometry>
        </mxCell>
        <mxCell id="sLChm1T4Akftlm2NWWwi-27" value="This is a parameter" style="text;html=1;align=center;verticalAlign=middle;whiteSpace=wrap;rounded=0;" parent="1" vertex="1">
          <mxGeometry x="100" y="130" width="110" height="40" as="geometry" />
        </mxCell>
        <mxCell id="sLChm1T4Akftlm2NWWwi-28" value="" style="endArrow=classic;html=1;rounded=0;exitX=0.609;exitY=1.063;exitDx=0;exitDy=0;exitPerimeter=0;" parent="1" source="sLChm1T4Akftlm2NWWwi-27" edge="1">
          <mxGeometry width="50" height="50" relative="1" as="geometry">
            <mxPoint x="210" y="220" as="sourcePoint" />
            <mxPoint x="220" y="200" as="targetPoint" />
          </mxGeometry>
        </mxCell>
        <mxCell id="sLChm1T4Akftlm2NWWwi-29" value="" style="endArrow=classic;html=1;rounded=0;startArrow=oval;startFill=0;" parent="1" edge="1">
          <mxGeometry width="50" height="50" relative="1" as="geometry">
            <mxPoint x="240" y="280" as="sourcePoint" />
            <mxPoint x="330" y="230" as="targetPoint" />
          </mxGeometry>
        </mxCell>
        <mxCell id="sLChm1T4Akftlm2NWWwi-30" value="scores" style="edgeLabel;html=1;align=center;verticalAlign=middle;resizable=0;points=[];" parent="sLChm1T4Akftlm2NWWwi-29" vertex="1" connectable="0">
          <mxGeometry x="0.325" y="2" relative="1" as="geometry">
            <mxPoint as="offset" />
          </mxGeometry>
        </mxCell>
        <mxCell id="sLChm1T4Akftlm2NWWwi-31" value="" style="endArrow=classic;html=1;rounded=0;startArrow=oval;startFill=0;" parent="1" edge="1">
          <mxGeometry width="50" height="50" relative="1" as="geometry">
            <mxPoint x="360" y="230" as="sourcePoint" />
            <mxPoint x="320" y="270" as="targetPoint" />
          </mxGeometry>
        </mxCell>
        <mxCell id="sLChm1T4Akftlm2NWWwi-32" value="scores" style="edgeLabel;html=1;align=center;verticalAlign=middle;resizable=0;points=[];" parent="sLChm1T4Akftlm2NWWwi-31" vertex="1" connectable="0">
          <mxGeometry x="0.325" y="2" relative="1" as="geometry">
            <mxPoint as="offset" />
          </mxGeometry>
        </mxCell>
        <mxCell id="sLChm1T4Akftlm2NWWwi-34" value="" style="endArrow=classic;html=1;rounded=0;startArrow=oval;startFill=0;" parent="1" edge="1">
          <mxGeometry width="50" height="50" relative="1" as="geometry">
            <mxPoint x="380" y="270" as="sourcePoint" />
            <mxPoint x="390" y="220" as="targetPoint" />
          </mxGeometry>
        </mxCell>
        <mxCell id="sLChm1T4Akftlm2NWWwi-35" value="average" style="edgeLabel;html=1;align=center;verticalAlign=middle;resizable=0;points=[];" parent="sLChm1T4Akftlm2NWWwi-34" vertex="1" connectable="0">
          <mxGeometry x="0.325" y="2" relative="1" as="geometry">
            <mxPoint as="offset" />
          </mxGeometry>
        </mxCell>
        <mxCell id="sLChm1T4Akftlm2NWWwi-37" value="" style="endArrow=classic;html=1;rounded=0;startArrow=oval;startFill=0;" parent="1" edge="1">
          <mxGeometry width="50" height="50" relative="1" as="geometry">
            <mxPoint x="410" y="220" as="sourcePoint" />
            <mxPoint x="470" y="260" as="targetPoint" />
          </mxGeometry>
        </mxCell>
        <mxCell id="sLChm1T4Akftlm2NWWwi-38" value="average" style="edgeLabel;html=1;align=center;verticalAlign=middle;resizable=0;points=[];" parent="sLChm1T4Akftlm2NWWwi-37" vertex="1" connectable="0">
          <mxGeometry x="0.325" y="2" relative="1" as="geometry">
            <mxPoint as="offset" />
          </mxGeometry>
        </mxCell>
        <mxCell id="ARmO8_SnWGhTlexEBaBB-1" value="" style="whiteSpace=wrap;html=1;aspect=fixed;rotation=-45;" vertex="1" parent="1">
          <mxGeometry x="386.25" y="206.73" width="22.5" height="22.5" as="geometry" />
        </mxCell>
        <mxCell id="ARmO8_SnWGhTlexEBaBB-12" value="" style="curved=1;endArrow=classic;html=1;rounded=0;" edge="1" parent="1">
          <mxGeometry width="50" height="50" relative="1" as="geometry">
            <mxPoint x="440" y="250" as="sourcePoint" />
            <mxPoint x="490" y="200" as="targetPoint" />
            <Array as="points">
              <mxPoint x="490" y="250" />
              <mxPoint x="440" y="200" />
            </Array>
          </mxGeometry>
        </mxCell>
        <mxCell id="ARmO8_SnWGhTlexEBaBB-14" value="" style="curved=1;endArrow=classic;html=1;rounded=0;" edge="1" parent="1">
          <mxGeometry width="50" height="50" relative="1" as="geometry">
            <mxPoint x="355" y="222.98" as="sourcePoint" />
            <mxPoint x="335" y="192.98" as="targetPoint" />
            <Array as="points">
              <mxPoint x="335" y="242.98" />
              <mxPoint x="285" y="192.98" />
            </Array>
          </mxGeometry>
        </mxCell>
      </root>
    </mxGraphModel>
  </diagram>
</mxfile>
